#N canvas 512 47 1033 909 10;
#X obj -8063 1066 dac~;
#X obj -8025 698 mtof;
#X obj -8039 897 osc~;
#X obj -8039 839 line~;
#X msg -8036 778 \$1 100;
#X msg -8463 425 60;
#X msg -8333 294 62;
#X msg -8427 396 64;
#X msg -8278 292 65;
#X msg -8221 294 69;
#X msg -8043 342 71;
#X obj -8235 259 bng 15 250 50 0 empty empty empty 17 7 0 10 -262144
-1 -1;
#X obj -8041 302 bng 15 250 50 0 empty empty empty 17 7 0 10 -262144
-1 -1;
#X msg -8371 385 67;
#X msg -8095 335 64;
#X msg -7998 334 69;
#X msg -7920 387 60;
#X msg -7834 388 71;
#X msg -7880 383 65;
#X obj -7882 336 bng 15 250 50 0 empty empty empty 17 7 0 10 -262144
-1 -1;
#X msg -7758 442 62;
#X msg -7663 440 67;
#X msg -7712 444 71;
#X obj -7710 393 bng 15 250 50 0 empty empty empty 17 7 0 10 -262144
-1 -1;
#X msg -7629 552 60;
#X msg -7583 570 64;
#X msg -7685 538 69;
#X obj -7625 504 bng 15 250 50 0 empty empty empty 17 7 0 10 -262144
-1 -1;
#X text -7570 510 AM;
#X text -7674 394 G;
#X text -7835 319 F;
#X text -8056 280 EM;
#X text -8242 235 DM;
#X text -8471 321 C;
#X obj -8447 353 bng 15 250 50 0 empty empty empty 17 7 0 10 -262144
-1 -1;
#X obj -8264 953 vd~ vibrato;
#X obj -8262 868 *~ 1;
#X obj -8150 737 vsl 15 128 1 2 0 0 empty empty empty 0 -9 0 10 -204800
-1 -1 0 1;
#X obj -8261 890 +~ 2;
#X obj -7967 1033 delwrite~ vibrato 50;
#X obj -8261 827 osc~ 2;
#X obj -8262 613 vsl 15 128 1 5 0 0 empty empty empty 0 -9 0 10 -261234
-1 -1 0 1;
#X floatatom -8110 960 5 0 0 0 - - -, f 5;
#X obj -8110 938 +;
#X obj -8150 873 * 2;
#X floatatom -8261 787 5 0 0 0 - - -, f 5;
#X obj -8168 159 f;
#X obj -8081 124 sel 5;
#X msg -8080 151 1;
#X obj -7927 203 select 1 2 3 4;
#X floatatom -8168 190 5 0 0 0 - - -, f 5;
#X obj -8166 15 trigger bang bang;
#X obj -8059 1032 *~;
#X obj -8288 21 tgl 15 0 empty empty empty 17 7 0 10 -262144 -1 -1
0 1;
#X floatatom -8289 65 5 0 0 0 - - -, f 5;
#X obj -8416 6 r onOff;
#X obj -7754 113 s onOff;
#X obj -7753 72 tgl 15 0 empty empty empty 17 7 0 10 -262144 -1 -1
0 1;
#X obj -8229 736 r freq;
#X obj -8079 102 + 1;
#X obj -8167 70 metro 2000;
#X connect 1 0 4 0;
#X connect 2 0 39 0;
#X connect 2 0 52 0;
#X connect 3 0 2 0;
#X connect 4 0 3 0;
#X connect 5 0 1 0;
#X connect 6 0 1 0;
#X connect 7 0 1 0;
#X connect 8 0 1 0;
#X connect 9 0 1 0;
#X connect 10 0 1 0;
#X connect 11 0 9 0;
#X connect 11 0 8 0;
#X connect 11 0 6 0;
#X connect 12 0 10 0;
#X connect 12 0 14 0;
#X connect 12 0 15 0;
#X connect 13 0 1 0;
#X connect 14 0 1 0;
#X connect 15 0 1 0;
#X connect 16 0 1 0;
#X connect 17 0 1 0;
#X connect 18 0 1 0;
#X connect 19 0 16 0;
#X connect 19 0 18 0;
#X connect 19 0 17 0;
#X connect 20 0 1 0;
#X connect 21 0 1 0;
#X connect 22 0 1 0;
#X connect 23 0 20 0;
#X connect 23 0 22 0;
#X connect 23 0 21 0;
#X connect 24 0 1 0;
#X connect 25 0 1 0;
#X connect 26 0 1 0;
#X connect 27 0 24 0;
#X connect 27 0 26 0;
#X connect 27 0 25 0;
#X connect 34 0 5 0;
#X connect 34 0 7 0;
#X connect 34 0 13 0;
#X connect 35 0 52 0;
#X connect 36 0 38 0;
#X connect 37 0 36 1;
#X connect 37 0 43 1;
#X connect 37 0 44 0;
#X connect 38 0 35 0;
#X connect 40 0 36 0;
#X connect 41 0 45 0;
#X connect 43 0 42 0;
#X connect 44 0 38 1;
#X connect 44 0 43 0;
#X connect 45 0 40 0;
#X connect 46 0 50 0;
#X connect 46 0 59 0;
#X connect 47 0 48 0;
#X connect 47 1 46 1;
#X connect 48 0 46 1;
#X connect 49 0 34 0;
#X connect 49 1 23 0;
#X connect 49 2 27 0;
#X connect 49 3 19 0;
#X connect 50 0 49 0;
#X connect 51 0 60 0;
#X connect 51 1 48 0;
#X connect 52 0 0 0;
#X connect 52 0 0 1;
#X connect 53 0 54 0;
#X connect 53 0 51 0;
#X connect 54 0 52 1;
#X connect 55 0 53 0;
#X connect 57 0 56 0;
#X connect 58 0 45 0;
#X connect 59 0 47 0;
#X connect 60 0 46 0;
